<svg width="48" height="48" viewBox="0 0 48 48" fill="none" xmlns="http://www.w3.org/2000/svg">
<path d="M12 23.999H36C37.5913 23.999 39.1174 23.3669 40.2426 22.2417C41.3679 21.1164 42 19.5903 42 17.999V13.999C42 12.4077 41.3679 10.8816 40.2426 9.75638C39.1174 8.63116 37.5913 7.99902 36 7.99902H12C10.4087 7.99902 8.88258 8.63116 7.75736 9.75638C6.63214 10.8816 6 12.4077 6 13.999V17.999C6 19.5903 6.63214 21.1164 7.75736 22.2417C8.88258 23.3669 10.4087 23.999 12 23.999ZM12 23.999C10.4087 23.999 8.88258 24.6312 7.75736 25.7564C6.63214 26.8816 6 28.4077 6 29.999V33.999C6 35.5903 6.63214 37.1164 7.75736 38.2417C8.88258 39.3669 10.4087 39.999 12 39.999H24M12 23.999H33M36 39.999C34.9391 39.999 33.9217 39.5776 33.1716 38.8274C32.4214 38.0773 32 37.0599 32 35.999C32 34.9382 32.4214 33.9207 33.1716 33.1706C33.9217 32.4205 34.9391 31.999 36 31.999M36 39.999C37.0609 39.999 38.0783 39.5776 38.8284 38.8274C39.5786 38.0773 40 37.0599 40 35.999C40 34.9382 39.5786 33.9207 38.8284 33.1706C38.0783 32.4205 37.0609 31.999 36 31.999M36 39.999V42.999M36 31.999V28.999M42.064 32.499L39.466 33.999M32.54 37.999L29.94 39.499M29.94 32.499L32.54 33.999M39.466 37.999L42.066 39.499M14 15.999V16.019M14 31.999V32.019" stroke="url(#paint0_linear_334_164)" stroke-width="2" stroke-linecap="round" stroke-linejoin="round"/>
<defs>
<linearGradient id="paint0_linear_334_164" x1="6" y1="36.71" x2="40.909" y2="36.7216" gradientUnits="userSpaceOnUse">
<stop stop-color="#FF9900"/>
<stop offset="1" stop-color="#F24822"/>
</linearGradient>
</defs>
</svg>
