<svg width="360" height="48" viewBox="0 0 360 48" fill="none" xmlns="http://www.w3.org/2000/svg">
<path fill-rule="evenodd" clip-rule="evenodd" d="M97.6791 19.8914C93.7271 17.1036 69.6384 0.111113 -0.0012207 0H180H180H360.002C290.362 0.111113 266.273 17.1036 262.321 19.8914C262.112 20.0391 261.959 20.1469 261.859 20.2102C261.758 20.2744 261.565 20.4037 261.286 20.5914L261.285 20.5917C256.062 24.1008 220.486 48 181.997 48C181.337 48 180.671 47.9957 180 47.9872M180 47.9872C179.329 47.9957 178.664 48 178.004 48C139.515 48 103.939 24.1008 98.7151 20.5917L98.7146 20.5914C98.4352 20.4037 98.2427 20.2744 98.1413 20.2102C98.0412 20.1469 97.8884 20.0391 97.6791 19.8914" fill="#0B0C13"/>
</svg>
