<svg width="48" height="48" viewBox="0 0 48 48" fill="none" xmlns="http://www.w3.org/2000/svg">
<g id="icons - 48">
<path id="Vector" d="M5 29V30H7V29H5ZM10 6V5V6ZM38 6V5V6ZM41 29V30H43V29H41ZM31 34V33H30V34H31ZM31 37V38H32V37H31ZM17 37H16V38H17V37ZM17 34H18V33H17V34ZM2 34V33H1V34H2ZM9 42V41V42ZM39 42V41V42ZM46 34H47V33H46V34ZM29.4779 25.5761C29.5199 26.1268 30.0004 26.5391 30.5511 26.4971C31.1018 26.4551 31.5141 25.9746 31.4721 25.4239L29.4779 25.5761ZM16.5279 25.4239C16.4859 25.9746 16.8982 26.4551 17.4489 26.4971C17.9996 26.5391 18.4801 26.1268 18.5221 25.5761L16.5279 25.4239ZM7 29V10H5V29H7ZM7 10C7 9.20435 7.31607 8.44129 7.87868 7.87868L6.46447 6.46447C5.52678 7.40215 5 8.67392 5 10H7ZM7.87868 7.87868C8.44129 7.31607 9.20435 7 10 7V5C8.67392 5 7.40215 5.52678 6.46447 6.46447L7.87868 7.87868ZM10 7H38V5H10V7ZM38 7C38.7957 7 39.5587 7.31607 40.1213 7.87868L41.5355 6.46447C40.5979 5.52678 39.3261 5 38 5V7ZM40.1213 7.87868C40.6839 8.44129 41 9.20435 41 10H43C43 8.67392 42.4732 7.40215 41.5355 6.46447L40.1213 7.87868ZM41 10V29H43V10H41ZM30 34V37H32V34H30ZM31 36H17V38H31V36ZM18 37V34H16V37H18ZM17 33H2V35H17V33ZM1 34V35H3V34H1ZM1 35C1 37.1217 1.84285 39.1566 3.34315 40.6569L4.75736 39.2426C3.63214 38.1174 3 36.5913 3 35H1ZM3.34315 40.6569C4.84344 42.1571 6.87827 43 9 43V41C7.4087 41 5.88258 40.3679 4.75736 39.2426L3.34315 40.6569ZM9 43H39V41H9V43ZM39 43C41.1217 43 43.1566 42.1571 44.6569 40.6569L43.2426 39.2426C42.1174 40.3679 40.5913 41 39 41V43ZM44.6569 40.6569C46.1571 39.1566 47 37.1217 47 35H45C45 36.5913 44.3679 38.1174 43.2426 39.2426L44.6569 40.6569ZM47 35V34H45V35H47ZM46 33H31V35H46V33ZM31.4721 25.4239C31.1768 21.5532 27.9493 18.5 24 18.5V20.5C26.8927 20.5 29.2613 22.7368 29.4779 25.5761L31.4721 25.4239ZM24 18.5C20.0507 18.5 16.8233 21.5532 16.5279 25.4239L18.5221 25.5761C18.7387 22.7368 21.1073 20.5 24 20.5V18.5ZM26.5 16C26.5 17.3807 25.3807 18.5 24 18.5V20.5C26.4853 20.5 28.5 18.4853 28.5 16H26.5ZM24 18.5C22.6193 18.5 21.5 17.3807 21.5 16H19.5C19.5 18.4853 21.5147 20.5 24 20.5V18.5ZM21.5 16C21.5 14.6193 22.6193 13.5 24 13.5V11.5C21.5147 11.5 19.5 13.5147 19.5 16H21.5ZM24 13.5C25.3807 13.5 26.5 14.6193 26.5 16H28.5C28.5 13.5147 26.4853 11.5 24 11.5V13.5Z" fill="url(#paint0_linear_710_405)"/>
</g>
<defs>
<linearGradient id="paint0_linear_710_405" x1="2" y1="35.5312" x2="44.5884" y2="35.5481" gradientUnits="userSpaceOnUse">
<stop stop-color="#FF9900"/>
<stop offset="1" stop-color="#F24822"/>
</linearGradient>
</defs>
</svg>
