<svg width="48" height="48" viewBox="0 0 48 48" fill="none" xmlns="http://www.w3.org/2000/svg">
<path fill-rule="evenodd" clip-rule="evenodd" d="M24 1C21.0274 1 18.5592 3.16257 18.083 6H15H14V7V13V14H15H33H34V13V7V6H33H29.917C29.4408 3.16257 26.9726 1 24 1ZM20 7C20 4.79128 21.7913 3 24 3C26.2087 3 28 4.79128 28 7V8H29H32V12H16V8H19H20V7ZM5 8H6H11H12V10H11H7V45H41V10H37H36V8H37H42H43V9V46V47H42H6H5V46V9V8ZM32.4142 24L31.7071 24.7071L22.7071 33.7071L22 34.4142L21.2929 33.7071L16.2929 28.7071L15.5858 28L17 26.5858L17.7071 27.2929L22 31.5858L30.2929 23.2929L31 22.5858L32.4142 24Z" fill="url(#paint0_linear_869_3505)"/>
<defs>
<linearGradient id="paint0_linear_869_3505" x1="5" y1="38.7344" x2="41.7809" y2="38.7442" gradientUnits="userSpaceOnUse">
<stop stop-color="#FF9900"/>
<stop offset="1" stop-color="#F24822"/>
</linearGradient>
</defs>
</svg>
