<svg width="48" height="48" viewBox="0 0 48 48" fill="none" xmlns="http://www.w3.org/2000/svg">
<path d="M28 5.99902H6C3.791 5.99902 2 7.79002 2 9.99902V37.999C2 40.208 3.791 41.999 6 41.999H28M33 2.99902V44.999M41 19.999H43V27.999M28 20.749L22 28.999L17 24.999L10 34.999H28M19 14.999C19 16.6559 17.6569 17.999 16 17.999C14.3431 17.999 13 16.6559 13 14.999C13 13.3422 14.3431 11.999 16 11.999C17.6569 11.999 19 13.3422 19 14.999ZM42 33.999H44C45.1046 33.999 46 34.8945 46 35.999V39.999C46 41.1036 45.1046 41.999 44 41.999H42C40.8954 41.999 40 41.1036 40 39.999V35.999C40 34.8945 40.8954 33.999 42 33.999ZM42 5.99902H44C45.1046 5.99902 46 6.89445 46 7.99902V11.999C46 13.1036 45.1046 13.999 44 13.999H42C40.8954 13.999 40 13.1036 40 11.999V7.99902C40 6.89445 40.8954 5.99902 42 5.99902Z" stroke="url(#paint0_linear_710_5219)" stroke-width="2" stroke-miterlimit="10" stroke-linecap="square"/>
<defs>
<linearGradient id="paint0_linear_710_5219" x1="2" y1="37.4521" x2="44.5884" y2="37.4666" gradientUnits="userSpaceOnUse">
<stop stop-color="#FF9900"/>
<stop offset="1" stop-color="#F24822"/>
</linearGradient>
</defs>
</svg>
