<svg width="48" height="48" viewBox="0 0 48 48" fill="none" xmlns="http://www.w3.org/2000/svg">
<path d="M6 32C6 33.5913 6.63214 35.1174 7.75736 36.2426C8.88258 37.3679 10.4087 38 12 38C13.5913 38 15.1174 37.3679 16.2426 36.2426C17.3679 35.1174 18 33.5913 18 32C18 30.4087 17.3679 28.8826 16.2426 27.7574C15.1174 26.6321 13.5913 26 12 26C10.4087 26 8.88258 26.6321 7.75736 27.7574C6.63214 28.8826 6 30.4087 6 32Z" stroke="url(#paint0_linear_334_81)" stroke-width="2" stroke-linecap="round" stroke-linejoin="round"/>
<path d="M28 38C28 39.0609 28.4214 40.0783 29.1716 40.8284C29.9217 41.5786 30.9391 42 32 42C33.0609 42 34.0783 41.5786 34.8284 40.8284C35.5786 40.0783 36 39.0609 36 38C36 36.9391 35.5786 35.9217 34.8284 35.1716C34.0783 34.4214 33.0609 34 32 34C30.9391 34 29.9217 34.4214 29.1716 35.1716C28.4214 35.9217 28 36.9391 28 38Z" stroke="url(#paint1_linear_334_81)" stroke-width="2" stroke-linecap="round" stroke-linejoin="round"/>
<path d="M20 15C20 17.3869 20.9482 19.6761 22.636 21.364C24.3239 23.0518 26.6131 24 29 24C31.3869 24 33.6761 23.0518 35.364 21.364C37.0518 19.6761 38 17.3869 38 15C38 12.6131 37.0518 10.3239 35.364 8.63604C33.6761 6.94821 31.3869 6 29 6C26.6131 6 24.3239 6.94821 22.636 8.63604C20.9482 10.3239 20 12.6131 20 15Z" stroke="url(#paint2_linear_334_81)" stroke-width="2" stroke-linecap="round" stroke-linejoin="round"/>
<defs>
<linearGradient id="paint0_linear_334_81" x1="6" y1="35.5312" x2="36.9734" y2="35.5402" gradientUnits="userSpaceOnUse">
<stop stop-color="#FF9900"/>
<stop offset="1" stop-color="#F24822"/>
</linearGradient>
<linearGradient id="paint1_linear_334_81" x1="6" y1="35.5312" x2="36.9734" y2="35.5402" gradientUnits="userSpaceOnUse">
<stop stop-color="#FF9900"/>
<stop offset="1" stop-color="#F24822"/>
</linearGradient>
<linearGradient id="paint2_linear_334_81" x1="6" y1="35.5312" x2="36.9734" y2="35.5402" gradientUnits="userSpaceOnUse">
<stop stop-color="#FF9900"/>
<stop offset="1" stop-color="#F24822"/>
</linearGradient>
</defs>
</svg>
