<svg width="48" height="48" viewBox="0 0 48 48" fill="none" xmlns="http://www.w3.org/2000/svg">
<path d="M24 36C25.0609 36 26.0783 36.4214 26.8284 37.1716C27.5786 37.9217 28 38.9391 28 40C28 41.0609 27.5786 42.0783 26.8284 42.8284C26.0783 43.5786 25.0609 44 24 44C22.9391 44 21.9217 43.5786 21.1716 42.8284C20.4214 42.0783 20 41.0609 20 40C20 38.9391 20.4214 37.9217 21.1716 37.1716C21.9217 36.4214 22.9391 36 24 36ZM24 36V28M24 12C22.9391 12 21.9217 11.5786 21.1716 10.8284C20.4214 10.0783 20 9.06087 20 8C20 6.93913 20.4214 5.92172 21.1716 5.17157C21.9217 4.42143 22.9391 4 24 4C25.0609 4 26.0783 4.42143 26.8284 5.17157C27.5786 5.92172 28 6.93913 28 8C28 9.06087 27.5786 10.0783 26.8284 10.8284C26.0783 11.5786 25.0609 12 24 12ZM24 12V20M12 24C12 22.9391 11.5786 21.9217 10.8284 21.1716C10.0783 20.4214 9.06087 20 8 20C6.93913 20 5.92172 20.4214 5.17157 21.1716C4.42143 21.9217 4 22.9391 4 24C4 25.0609 4.42143 26.0783 5.17157 26.8284C5.92172 27.5786 6.93913 28 8 28C9.06087 28 10.0783 27.5786 10.8284 26.8284C11.5786 26.0783 12 25.0609 12 24ZM12 24H20M36 24C36 22.9391 36.4214 21.9217 37.1716 21.1716C37.9217 20.4214 38.9391 20 40 20C41.0609 20 42.0783 20.4214 42.8284 21.1716C43.5786 21.9217 44 22.9391 44 24C44 25.0609 43.5786 26.0783 42.8284 26.8284C42.0783 27.5786 41.0609 28 40 28C38.9391 28 37.9217 27.5786 37.1716 26.8284C36.4214 26.0783 36 25.0609 36 24ZM36 24H28M28 24C28 22.9391 27.5786 21.9217 26.8284 21.1716C26.0783 20.4214 25.0609 20 24 20M28 24C28 25.0609 27.5786 26.0783 26.8284 26.8284C26.0783 27.5786 25.0609 28 24 28M24 20C22.9391 20 21.9217 20.4214 21.1716 21.1716C20.4214 21.9217 20 22.9391 20 24M20 24C20 25.0609 20.4214 26.0783 21.1716 26.8284C21.9217 27.5786 22.9391 28 24 28M27 11L37 21M11 27L21 37M27 37L37 27M21 11L11 21" stroke="url(#paint0_linear_334_1108)" stroke-width="2" stroke-linecap="round" stroke-linejoin="round"/>
<defs>
<linearGradient id="paint0_linear_334_1108" x1="4" y1="36.8125" x2="42.7168" y2="36.8251" gradientUnits="userSpaceOnUse">
<stop stop-color="#FF9900"/>
<stop offset="1" stop-color="#F24822"/>
</linearGradient>
</defs>
</svg>
