<svg width="48" height="48" viewBox="0 0 48 48" fill="none" xmlns="http://www.w3.org/2000/svg">
<path d="M6 41.999V37.999C6 35.8773 6.84285 33.8425 8.34315 32.3422C9.84344 30.8419 11.8783 29.999 14 29.999H22C23.896 29.999 25.636 30.659 27.008 31.759M32 6.25902C33.7208 6.69962 35.2461 7.70042 36.3353 9.10364C37.4245 10.5069 38.0157 12.2327 38.0157 14.009C38.0157 15.7854 37.4245 17.5112 36.3353 18.9144C35.2461 20.3176 33.7208 21.3184 32 21.759M32 37.999H44M10 13.999C10 16.1208 10.8429 18.1556 12.3431 19.6559C13.8434 21.1562 15.8783 21.999 18 21.999C20.1217 21.999 22.1566 21.1562 23.6569 19.6559C25.1571 18.1556 26 16.1208 26 13.999C26 11.8773 25.1571 9.84246 23.6569 8.34217C22.1566 6.84188 20.1217 5.99902 18 5.99902C15.8783 5.99902 13.8434 6.84188 12.3431 8.34217C10.8429 9.84246 10 11.8773 10 13.999Z" stroke="url(#paint0_linear_334_715)" stroke-width="2" stroke-linecap="round" stroke-linejoin="round"/>
<defs>
<linearGradient id="paint0_linear_334_715" x1="6" y1="35.5303" x2="42.7809" y2="35.5429" gradientUnits="userSpaceOnUse">
<stop stop-color="#FF9900"/>
<stop offset="1" stop-color="#F24822"/>
</linearGradient>
</defs>
</svg>
