<svg width="48" height="48" viewBox="0 0 48 48" fill="none" xmlns="http://www.w3.org/2000/svg">
<g id="icons - 48">
<path id="Vector" d="M22 2.99902L22.5547 2.16697L22 1.79717L21.4453 2.16697L22 2.99902ZM2 38.999H1V39.999H2V38.999ZM2 10.999V9.99902H1V10.999H2ZM42 10.999H43V9.99902H42V10.999ZM10 19.999H9V21.999H10V19.999ZM24 21.999H25V19.999H24V21.999ZM10 27.999H9V29.999H10V27.999ZM18 29.999H19V27.999H18V29.999ZM44 44.999L43.5528 45.8935L45 46.6171V44.999H44ZM38 41.999L38.4472 41.1046L38 40.881L37.5528 41.1046L38 41.999ZM32 44.999H31V46.6171L32.4472 45.8935L32 44.999ZM34.5547 10.167L22.5547 2.16697L21.4453 3.83107L33.4453 11.8311L34.5547 10.167ZM21.4453 2.16697L9.4453 10.167L10.5547 11.8311L22.5547 3.83107L21.4453 2.16697ZM27 37.999H2V39.999H27V37.999ZM3 38.999V10.999H1V38.999H3ZM2 11.999H42V9.99902H2V11.999ZM41 10.999V20.07H43V10.999H41ZM10 21.999H24V19.999H10V21.999ZM10 29.999H18V27.999H10V29.999ZM43 32.291V44.999H45V32.291H43ZM44.4472 44.1046L38.4472 41.1046L37.5528 42.8935L43.5528 45.8935L44.4472 44.1046ZM37.5528 41.1046L31.5528 44.1046L32.4472 45.8935L38.4472 42.8935L37.5528 41.1046ZM33 44.999V32.291H31V44.999H33ZM45 26.999C45 30.865 41.866 33.999 38 33.999V35.999C42.9706 35.999 47 31.9696 47 26.999H45ZM38 33.999C34.134 33.999 31 30.865 31 26.999H29C29 31.9696 33.0294 35.999 38 35.999V33.999ZM31 26.999C31 23.133 34.134 19.999 38 19.999V17.999C33.0294 17.999 29 22.0285 29 26.999H31ZM38 19.999C41.866 19.999 45 23.133 45 26.999H47C47 22.0285 42.9706 17.999 38 17.999V19.999Z" fill="url(#paint0_linear_869_5111)"/>
</g>
<defs>
<linearGradient id="paint0_linear_869_5111" x1="2" y1="37.4521" x2="44.5884" y2="37.4666" gradientUnits="userSpaceOnUse">
<stop stop-color="#FF9900"/>
<stop offset="1" stop-color="#F24822"/>
</linearGradient>
</defs>
</svg>
